<mxfile host="65bd71144e">
    <diagram id="383rinGDUMrq5UYrHsTL" name="Page-1">
        <mxGraphModel dx="1544" dy="680" grid="1" gridSize="10" guides="1" tooltips="1" connect="1" arrows="1" fold="1" page="0" pageScale="1" pageWidth="850" pageHeight="1100" math="0" shadow="0">
            <root>
                <mxCell id="0"/>
                <mxCell id="1" parent="0"/>
                <mxCell id="10" value="" style="rounded=1;whiteSpace=wrap;html=1;labelBorderColor=#99004D;" vertex="1" parent="1">
                    <mxGeometry x="-10" y="40" width="950" height="780" as="geometry"/>
                </mxCell>
                <mxCell id="2" value="" style="whiteSpace=wrap;html=1;" vertex="1" parent="1">
                    <mxGeometry x="60" y="60" width="820" height="740" as="geometry"/>
                </mxCell>
                <mxCell id="8" style="edgeStyle=none;html=1;exitX=0.75;exitY=1;exitDx=0;exitDy=0;entryX=0.75;entryY=0;entryDx=0;entryDy=0;" edge="1" parent="1" source="4" target="7">
                    <mxGeometry relative="1" as="geometry"/>
                </mxCell>
                <mxCell id="17" style="edgeStyle=none;html=1;exitX=1;exitY=0.5;exitDx=0;exitDy=0;" edge="1" parent="1" source="4" target="12">
                    <mxGeometry relative="1" as="geometry"/>
                </mxCell>
                <mxCell id="4" value="speaker 1&lt;br&gt;(new tech;&lt;br&gt;)" style="whiteSpace=wrap;html=1;" vertex="1" parent="1">
                    <mxGeometry x="90" y="150" width="150" height="90" as="geometry"/>
                </mxCell>
                <mxCell id="15" style="edgeStyle=none;html=1;exitX=1;exitY=0.5;exitDx=0;exitDy=0;" edge="1" parent="1" source="6" target="14">
                    <mxGeometry relative="1" as="geometry"/>
                </mxCell>
                <mxCell id="6" value="speaker 3&lt;br&gt;(new tech)" style="whiteSpace=wrap;html=1;" vertex="1" parent="1">
                    <mxGeometry x="90" y="460" width="150" height="90" as="geometry"/>
                </mxCell>
                <mxCell id="9" style="edgeStyle=none;html=1;exitX=0.25;exitY=1;exitDx=0;exitDy=0;entryX=0.25;entryY=0;entryDx=0;entryDy=0;" edge="1" parent="1" source="7" target="6">
                    <mxGeometry relative="1" as="geometry"/>
                </mxCell>
                <mxCell id="16" style="edgeStyle=none;html=1;exitX=1;exitY=0.5;exitDx=0;exitDy=0;" edge="1" parent="1" source="7" target="13">
                    <mxGeometry relative="1" as="geometry"/>
                </mxCell>
                <mxCell id="7" value="speaker 2&lt;br&gt;(new tech)" style="whiteSpace=wrap;html=1;" vertex="1" parent="1">
                    <mxGeometry x="90" y="300" width="150" height="90" as="geometry"/>
                </mxCell>
                <mxCell id="11" value="&lt;u&gt;SITE DRIVER&lt;/u&gt;" style="text;html=1;align=center;verticalAlign=middle;resizable=0;points=[];autosize=1;strokeColor=none;fillColor=none;" vertex="1" parent="1">
                    <mxGeometry x="90" y="80" width="100" height="30" as="geometry"/>
                </mxCell>
                <mxCell id="12" value="JASEN" style="text;html=1;align=center;verticalAlign=middle;resizable=0;points=[];autosize=1;strokeColor=none;fillColor=none;" vertex="1" parent="1">
                    <mxGeometry x="310" y="180" width="60" height="30" as="geometry"/>
                </mxCell>
                <mxCell id="13" value="DAINIS (sharing screen)" style="text;html=1;align=center;verticalAlign=middle;resizable=0;points=[];autosize=1;strokeColor=none;fillColor=none;" vertex="1" parent="1">
                    <mxGeometry x="276" y="330" width="150" height="30" as="geometry"/>
                </mxCell>
                <mxCell id="14" value="SHUKRI" style="text;html=1;align=center;verticalAlign=middle;resizable=0;points=[];autosize=1;strokeColor=none;fillColor=none;" vertex="1" parent="1">
                    <mxGeometry x="305" y="490" width="70" height="30" as="geometry"/>
                </mxCell>
            </root>
        </mxGraphModel>
    </diagram>
</mxfile>